<?xml version="1.0" encoding="UTF-8"?>
<svg width="290px" height="332px" viewBox="0 0 290 332" version="1.1" xmlns="http://www.w3.org/2000/svg" xmlns:xlink="http://www.w3.org/1999/xlink">
    <!-- Generator: Sketch 48.2 (47327) - http://www.bohemiancoding.com/sketch -->
    <title>o</title>
    <desc>Created with Sketch.</desc>
    <defs></defs>
    <g id="Page-1" stroke="none" stroke-width="1" fill="none" fill-rule="evenodd">
        <g id="o" fill="#db6302">
            <g id="logo" transform="translate(6.000000, 4.000000)">
                <path d="M188.000004,2.07533262 C110.89031,14.5150368 52,81.380234 52,162 C52,242.619766 110.89031,309.484963 188.000004,321.924667 C179.534968,323.290286 170.850365,324 162,324 C72.5298705,324 0,251.470129 0,162 C0,72.5298705 72.5298705,0 162,0 C170.850365,0 179.534968,0.709713612 188,2.07533331 Z" id="Combined-Shape"></path>
                <path d="M234,36.6227334 C173.706783,46.3495232 127.659574,98.6324156 127.659574,161.67021 C127.659574,224.708004 173.706783,276.990897 234,286.717686 C227.381062,287.785484 220.590442,288.34042 213.67021,288.34042 C143.712185,288.34042 87,231.628235 87,161.67021 C87,91.7121847 143.712185,35 213.67021,35 C220.590442,35 227.381062,35.5549356 233.999997,36.622734 Z" id="Combined-Shape-Copy"></path>
                <path d="M276.48148,73.1423324 C234.037729,79.989561 201.622537,116.794398 201.622537,161.17021 C201.622537,205.546021 234.037729,242.350859 276.48148,249.198087 C271.822042,249.94977 267.041746,250.34042 262.17021,250.34042 C212.922863,250.34042 173,210.417557 173,161.17021 C173,111.922863 212.922863,72 262.17021,72 C267.041746,72 271.822042,72.3906501 276.481478,73.1423328 Z" id="Combined-Shape-Copy-2"></path>
            </g>
        </g>
    </g>
</svg>
